# Blender v2.92.0 OBJ File: 'mejaAdmin.blend'
# www.blender.org
mtllib mejaAdmin.mtl
o Cube
v 1.000000 0.049592 -5.246451
v 1.000000 6.313152 -5.246451
v 1.000000 0.049592 5.246451
v 1.000000 6.313152 5.246451
v -1.000000 0.049592 -5.246451
v -1.000000 6.313152 -5.246451
v -1.000000 0.049592 5.246451
v -1.000000 6.313152 5.246451
v 1.000000 0.049592 -4.984128
v 1.000000 6.313152 -4.984128
v 1.000000 0.049592 4.984128
v 1.000000 6.313152 4.984128
v -0.964646 0.049592 -5.060967
v -0.964646 6.313152 -5.060967
v -0.964646 0.049592 5.060967
v -0.964646 6.313152 5.060967
vt 0.375000 0.750000
vt 0.375000 1.000000
vt 0.625000 1.000000
vt 0.625000 0.750000
vt 0.375000 0.000000
vt 0.375000 0.250000
vt 0.625000 0.250000
vt 0.625000 0.000000
vt 0.375000 0.500000
vt 0.625000 0.500000
vt 0.375000 0.750000
vt 0.625000 0.750000
vt 0.625000 1.000000
vt 0.375000 1.000000
vt 0.375000 0.000000
vt 0.625000 0.000000
vt 0.625000 0.250000
vt 0.375000 0.250000
vt 0.625000 0.500000
vt 0.375000 0.500000
vn 0.0000 0.0000 1.0000
vn -1.0000 0.0000 0.0000
vn 0.0000 0.0000 -1.0000
vn -0.0391 0.0000 -0.9992
vn 1.0000 0.0000 0.0000
vn -0.0391 0.0000 0.9992
vn 0.0000 1.0000 0.0000
vn 0.0000 -1.0000 0.0000
usemtl Material
s off
f 4/1/1 8/2/1 7/3/1 3/4/1
f 8/5/2 6/6/2 5/7/2 7/8/2
f 6/6/3 2/9/3 1/10/3 5/7/3
f 12/11/4 11/12/4 15/13/4 16/14/4
f 16/15/5 15/16/5 13/17/5 14/18/5
f 14/18/6 13/17/6 9/19/6 10/20/6
f 8/5/7 16/15/7 14/18/7 6/6/7
f 6/6/7 14/18/7 10/20/7 2/9/7
f 2/9/5 10/20/5 9/19/5 1/10/5
f 3/4/5 11/12/5 12/11/5 4/1/5
f 7/3/8 15/13/8 11/12/8 3/4/8
f 4/1/7 12/11/7 16/14/7 8/2/7
f 5/7/8 13/17/8 15/16/8 7/8/8
f 1/10/8 9/19/8 13/17/8 5/7/8
o Cube.001
v 1.111467 6.277825 -5.386316
v 1.111467 6.403934 -5.386316
v 1.111467 6.277825 5.307906
v 1.111467 6.403934 5.307906
v -1.119490 6.277825 -5.386316
v -1.119490 6.403934 -5.386316
v -1.119490 6.277825 5.307906
v -1.119490 6.403934 5.307906
vt 0.625000 0.500000
vt 0.625000 0.750000
vt 0.875000 0.750000
vt 0.875000 0.500000
vt 0.375000 0.750000
vt 0.375000 1.000000
vt 0.625000 1.000000
vt 0.375000 0.000000
vt 0.375000 0.250000
vt 0.625000 0.250000
vt 0.625000 0.000000
vt 0.125000 0.500000
vt 0.125000 0.750000
vt 0.375000 0.500000
vn 0.0000 -1.0000 0.0000
vn 0.0000 0.0000 1.0000
vn -1.0000 0.0000 0.0000
vn 0.0000 1.0000 0.0000
vn 1.0000 0.0000 0.0000
vn 0.0000 0.0000 -1.0000
usemtl Material.001
s off
f 17/21/9 19/22/9 23/23/9 21/24/9
f 20/25/10 24/26/10 23/27/10 19/22/10
f 24/28/11 22/29/11 21/30/11 23/31/11
f 22/32/12 24/33/12 20/25/12 18/34/12
f 18/34/13 20/25/13 19/22/13 17/21/13
f 22/29/14 18/34/14 17/21/14 21/30/14
o Cube.002
v 1.109172 4.732827 -5.113029
v 1.109172 0.173976 -5.113029
v 1.109172 4.732827 -1.966016
v 1.109172 0.173976 -1.966016
v -0.890828 4.732827 -5.113029
v -0.890828 0.173976 -5.113029
v -0.890828 4.732827 -1.966016
v -0.890828 0.173976 -1.966016
vt 0.625000 0.500000
vt 0.875000 0.500000
vt 0.875000 0.750000
vt 0.625000 0.750000
vt 0.375000 0.750000
vt 0.625000 1.000000
vt 0.375000 1.000000
vt 0.375000 0.000000
vt 0.625000 0.000000
vt 0.625000 0.250000
vt 0.375000 0.250000
vt 0.125000 0.500000
vt 0.375000 0.500000
vt 0.125000 0.750000
vn 0.0000 1.0000 0.0000
vn 0.0000 0.0000 1.0000
vn -1.0000 0.0000 0.0000
vn 0.0000 -1.0000 0.0000
vn 1.0000 0.0000 0.0000
vn 0.0000 0.0000 -1.0000
usemtl Material
s off
f 25/35/15 29/36/15 31/37/15 27/38/15
f 28/39/16 27/38/16 31/40/16 32/41/16
f 32/42/17 31/43/17 29/44/17 30/45/17
f 30/46/18 26/47/18 28/39/18 32/48/18
f 26/47/19 25/35/19 27/38/19 28/39/19
f 30/45/20 29/44/20 25/35/20 26/47/20
o Cube.003
v 2.154011 4.959864 -5.152966
v 2.154011 4.715025 -5.152966
v 2.154011 4.959864 5.074556
v 2.154011 4.715025 5.074556
v -0.809619 4.959864 -5.152966
v -0.809619 4.715025 -5.152966
v -0.809619 4.959864 5.074556
v -0.809619 4.715025 5.074556
vt 0.625000 0.500000
vt 0.875000 0.500000
vt 0.875000 0.750000
vt 0.625000 0.750000
vt 0.375000 0.750000
vt 0.625000 1.000000
vt 0.375000 1.000000
vt 0.375000 0.000000
vt 0.625000 0.000000
vt 0.625000 0.250000
vt 0.375000 0.250000
vt 0.125000 0.500000
vt 0.375000 0.500000
vt 0.125000 0.750000
vn 0.0000 1.0000 0.0000
vn 0.0000 0.0000 1.0000
vn -1.0000 0.0000 0.0000
vn 0.0000 -1.0000 0.0000
vn 1.0000 0.0000 0.0000
vn 0.0000 0.0000 -1.0000
usemtl Material
s off
f 33/49/21 37/50/21 39/51/21 35/52/21
f 36/53/22 35/52/22 39/54/22 40/55/22
f 40/56/23 39/57/23 37/58/23 38/59/23
f 38/60/24 34/61/24 36/53/24 40/62/24
f 34/61/25 33/49/25 35/52/25 36/53/25
f 38/59/26 37/58/26 33/49/26 34/61/26
o Cube.004
v -1.213876 6.330513 5.236629
v -1.213876 0.143717 5.239442
v -1.213876 0.142115 1.716619
v -1.046046 6.330513 5.236629
v -1.046046 0.143717 5.239442
v -1.046046 0.142115 1.716619
v -1.213876 6.330353 4.883714
v -1.213876 0.761905 1.716337
v -1.046046 0.761905 1.716337
v -1.046046 6.330353 4.883714
vt 0.625000 0.500000
vt 0.875000 0.500000
vt 0.875000 0.525045
vt 0.625000 0.525045
vt 0.375000 0.250000
vt 0.625000 0.250000
vt 0.375000 0.500000
vt 0.375000 0.000000
vt 0.400045 0.000000
vt 0.625000 0.224955
vt 0.125000 0.500000
vt 0.375000 0.750000
vt 0.125000 0.750000
vt 0.400045 0.750000
vt 0.625000 0.750000
vt 0.625000 1.000000
vt 0.400045 1.000000
vt 0.375000 1.000000
vn 0.0000 -0.0005 -1.0000
vn 0.0000 -1.0000 0.0005
vn -1.0000 -0.0000 0.0000
vn 0.0000 0.0005 1.0000
vn 1.0000 0.0000 0.0000
vn 0.0000 0.4944 -0.8692
vn 0.0000 1.0000 -0.0005
usemtl Material.001
s off
f 46/63/27 43/64/27 48/65/27 49/66/27
f 42/67/28 43/68/28 46/63/28 45/69/28
f 41/70/29 47/71/29 48/72/29 43/68/29 42/67/29
f 42/73/30 45/69/30 44/74/30 41/75/30
f 45/69/31 46/63/31 49/66/31 50/76/31 44/74/31
f 49/77/32 48/78/32 47/79/32 50/76/32
f 44/74/33 50/76/33 47/79/33 41/80/33
o Cube.005
v -1.105728 6.330513 -5.203098
v -1.105823 0.143717 -5.205909
v -0.986460 0.142115 -1.685109
v -1.273461 6.330513 -5.197411
v -1.273557 0.143717 -5.200223
v -1.154194 0.142115 -1.679422
v -1.093770 6.330353 -4.850386
v -0.986451 0.761905 -1.684827
v -1.154184 0.761905 -1.679141
v -1.261504 6.330353 -4.844699
vt 0.625000 0.500000
vt 0.875000 0.500000
vt 0.875000 0.525045
vt 0.625000 0.525045
vt 0.375000 0.250000
vt 0.625000 0.250000
vt 0.375000 0.500000
vt 0.375000 0.000000
vt 0.400045 0.000000
vt 0.625000 0.224955
vt 0.125000 0.500000
vt 0.375000 0.750000
vt 0.125000 0.750000
vt 0.400045 0.750000
vt 0.625000 0.750000
vt 0.625000 1.000000
vt 0.400045 1.000000
vt 0.375000 1.000000
vn 0.0339 -0.0005 0.9994
vn -0.0000 -1.0000 -0.0005
vn 0.9994 0.0000 -0.0339
vn -0.0339 0.0005 -0.9994
vn -0.9994 0.0000 0.0339
vn 0.0295 0.4944 0.8687
vn 0.0000 1.0000 0.0005
usemtl Material.001
s off
f 56/81/34 53/82/34 58/83/34 59/84/34
f 52/85/35 53/86/35 56/81/35 55/87/35
f 51/88/36 57/89/36 58/90/36 53/86/36 52/85/36
f 52/91/37 55/87/37 54/92/37 51/93/37
f 55/87/38 56/81/38 59/84/38 60/94/38 54/92/38
f 59/95/39 58/96/39 57/97/39 60/94/39
f 54/92/40 60/94/40 57/97/40 51/98/40
